# xmcd CD database file
#
# Track frame offsets:
#	150
#	21682
#	42012
#	66055
#	83537
#	101650
#	125090
#	146447
#	172347
#	195115
#
# Disc length: 2691 seconds
#
# Revision: 0
# Processed by: cddbd v1.5.1PL0 Copyright (c) Steve Scherf et al.
# Submitted via: CDex 1.51
#
DISCID=860a810a
DTITLE=サウンドトラック - FEDA THE EMBLEM OF JUSTICE SUPER TRACKS フェーダ・スーパー・トラックス
DYEAR=1995
DGENRE=Soundtrack
TTITLE0=OVER TURE from FEDA
TTITLE1=DETONATION (VOCAL:丹下桜)
TTITLE2=Huddle time
TTITLE3=Concerto for THE GOVERNOR
TTITLE4=Holy bright illuminates to Soldiers
TTITLE5=Battle suite
TTITLE6=DREAMS(VOCAL:りゅうてつし)
TTITLE7=THE GENOCIDE
TTITLE8=FEDAYEEN〜You're my FEDAYEEN(VOCAL:皆口裕子)
TTITLE9=BONUS TRACK TV-CM OF FEDA
EXTD=YEAR: 1995
EXTT0=
EXTT1=
EXTT2=
EXTT3=
EXTT4=
EXTT5=
EXTT6=
EXTT7=
EXTT8=
EXTT9=
PLAYORDER=
